PathFileType	4	(X/Y/Z)	C:/Users/beibeiliu/ov580/test_trc/User2\sequence.34_training_dense_left.trc
DataRate	CameraRate	NumFrames	NumMarkers	Units	OrigDataRate	OrigDataStartFrame	OrigNumFrames
120	120	23	19	mm	120	286	326
Frame#	Time	ThumbCMC			ThumbMCP			ThumbIP			ThumbTip			IndexMCP			IndexPIP			IndexTip			MiddleMCP			MiddlePIP			MiddleTip			RingMCP			RingPIP			RingTip			PinkyMCP			PinkyPIP			PinkyTip			BackHand1			BackHand2			BackHand3	
		X0	Y0	Z0	X1	Y1	Z1	X2	Y2	Z2	X3	Y3	Z3	X4	Y4	Z4	X5	Y5	Z5	X6	Y6	Z6	X7	Y7	Z7	X8	Y8	Z8	X9	Y9	Z9	X10	Y10	Z10	X11	Y11	Z11	X12	Y12	Z12	X13	Y13	Z13	X14	Y14	Z14	X15	Y15	Z15	X16	Y16	Z16	X17	Y17	Z17	X18	Y18	Z18	
285	2.375	-159.043	-34.1742	84.6482	-129.469	-31.005	65.7544	-117.412	-38.1887	34.7869	-118.263	-48.3699	6.76319	-147.251	-36.8833	-0.718071	-132.429	-65.8643	-1.09947	-140.71	-68.8416	31.8106	-163.739	-50.9983	-9.82458	-150.318	-82.1435	-0.378366	-159.526	-76.162	37.2828	-181.869	-63.4864	-7.15027	-166.491	-89.6544	2.45333	-178.444	-77.3055	35.8688	-197.213	-72.8685	-1.46111	-181.725	-100.001	10.367	-185.672	-89.0069	40.1188	-213.118	-30.7402	40.1327	-224.594	-31.4914	69.6911	-187.915	-17.1219	68.7903	
286	2.38333	-157.529	-35.2755	82.4421	-130.062	-35.2095	66.6995	-115.508	-39.2602	31.5295	-122.504	-49.9769	6.31883	-145.822	-36.931	-1.25819	-135.017	-65.2193	-3.27302	-143.162	-70.3843	29.4975	-165.859	-47.919	-6.98946	-152.975	-81.4018	-3.55549	-162.422	-74.9777	37.5247	-177.039	-63.9954	-8.90054	-169.084	-91.6114	4.003	-178.92	-75.2786	36.7473	-201.058	-73.922	-1.1915	-181.151	-97.8163	9.06608	-185.008	-87.24	42.3501	-211.702	-32.549	38.1525	-220.484	-29.1236	73.2724	-185.043	-17.4199	70.1303	
287	2.39167	-155.376	-35.5827	84.9654	-131.271	-36.0699	60.7006	-113.743	-40.1743	28.6921	-122.283	-51.7089	1.79745	-145.603	-37.0356	-2.10151	-137.894	-66.0499	-5.28124	-142.528	-67.1964	33.6233	-166.073	-48.2916	-7.44231	-151.804	-83.7081	0.638755	-161.012	-75.0728	37.2156	-180.589	-64.3934	-6.94288	-167.829	-90.3361	2.06166	-175.981	-75.9523	37.4245	-201.404	-73.7372	0.442523	-181.727	-97.6946	11.9909	-183.712	-85.8874	40.3521	-212.827	-30.9454	38.2395	-223.154	-30.0829	76.4196	-183.939	-17.0987	69.1906	
288	2.4	-154.577	-37.0343	82.5306	-125.843	-37.2729	61.18	-114.68	-42.5774	26.0399	-120.567	-53.7572	3.82725	-150.592	-38.2023	-1.86688	-137.812	-67.5341	-5.23191	-143.421	-69.9485	31.5841	-167.797	-53.1862	-9.52877	-156.611	-84.5059	-0.51135	-161.198	-74.0724	40.4205	-186.086	-66.6419	-7.51461	-168.902	-89.9167	2.91476	-174.032	-77.6946	36.1058	-202.21	-75.3184	0.80081	-182.315	-98.6343	16.107	-185.079	-83.9475	45.8443	-214.431	-31.4877	42.9701	-220.26	-31.6218	76.6436	-184.539	-18.0972	64.735	
289	2.40833	-152.317	-36.7057	83.3198	-126.111	-39.403	59.6221	-115.166	-45.416	23.1719	-118.117	-55.7413	-0.931381	-149.667	-38.7538	0.141442	-142.351	-71.6307	-2.80392	-146.937	-70.6218	31.7063	-169.413	-53.0533	-6.46169	-157.621	-86.709	-1.84649	-163.153	-74.6414	41.9929	-182.532	-69.1933	-6.84409	-169.389	-93.0296	6.55001	-179.118	-78.7262	40.2661	-203.273	-77.1644	3.79542	-183.903	-100.141	14.542	-186.01	-83.9332	47.3463	-211.799	-33.6903	40.4874	-220.508	-29.2009	76.3089	-186.591	-18.027	66.2379	
290	2.41667	-149.237	-36.927	81.7128	-124.661	-39.7666	54.9857	-114.629	-48.3057	20.1752	-123.826	-60.7692	-3.24016	-149.527	-42.1248	-0.713339	-142.673	-76.2107	-2.35631	-144.936	-74.1811	31.2029	-167.799	-59.6475	-8.99432	-158.519	-91.0644	2.02741	-159.16	-78.9442	41.4295	-183.273	-73.0688	-5.24493	-172.274	-97.4304	9.1087	-178.093	-79.7481	42.2201	-205.012	-78.4282	5.22942	-186.142	-104.587	22.3802	-189.713	-88.5018	48.7978	-209.533	-31.0373	44.5592	-218.484	-28.5011	75.6095	-183.242	-20.2628	61.9068	
291	2.425	-147.434	-35.149	78.3865	-128.113	-43.0497	53.9862	-116.258	-52.8323	21.2781	-120.227	-65.9423	0.343468	-146.586	-49.732	-5.31697	-143.927	-80.9427	-2.17238	-146.824	-76.8253	32.8708	-167.518	-61.1	-7.90942	-159.443	-95.1184	1.68116	-159.314	-83.3917	41.1955	-187.36	-76.5779	-3.11921	-177.022	-101.939	9.67877	-178.303	-82.9153	44.1624	-203.624	-87.2403	5.29453	-186.539	-105.438	23.1968	-189.916	-91.0697	51.4199	-212.943	-36.5218	41.1103	-220.188	-29.4854	75.6644	-181.586	-17.9939	63.4609	
292	2.43333	-147.422	-35.0304	76.8403	-128.283	-44.3207	54.0365	-116.168	-56.5271	24.0269	-124.26	-71.3921	-0.693342	-153.149	-55.9719	-3.40749	-144.106	-84.2735	-1.50273	-147.033	-79.8531	34.7259	-172.617	-69.1291	-5.59602	-156.86	-100.113	8.00968	-159.848	-88.6913	43.4846	-186.475	-82.1343	-1.12613	-174.585	-106.822	18.3054	-178.829	-88.8457	45.6608	-208.013	-88.487	11.0305	-187.902	-110.598	27.2321	-187.416	-91.7141	53.1879	-214.342	-38.4348	43.7286	-214.135	-30.1161	74.0688	-182.262	-19.1377	62.2969	
293	2.44167	-150.39	-36.0414	80.5757	-125.618	-46.0503	57.3704	-117.973	-62.9518	21.2752	-122.303	-78.6115	4.75862	-153.204	-58.3242	-0.148569	-143.71	-90.8895	3.37417	-143.195	-84.2164	37.2977	-169.093	-75.5088	-5.88941	-159.388	-105.115	10.2992	-163.15	-90.7626	47.5212	-188.535	-85.4954	3.57416	-173.79	-110.157	17.2081	-177.749	-92.2424	50.0755	-203.443	-92.1973	15.9471	-183.835	-111.643	33.164	-186.125	-90.5303	57.3709	-215.044	-42.9796	41.2579	-217.535	-30.7559	72.8053	-181.793	-22.4756	59.8064	
294	2.45	-147.281	-36.7688	77.0452	-128.009	-49.0798	54.1152	-118.69	-67.3064	27.307	-123.379	-85.8328	7.90529	-152.98	-63.6811	0.974888	-144.887	-96.4926	6.03636	-144.929	-83.8641	42.2519	-173.652	-82.7548	-1.14546	-160.282	-110.733	12.6284	-160.066	-90.6141	52.9049	-190.405	-94.0255	7.80041	-175.402	-116.613	26.7248	-177.991	-94.6391	54.1337	-204.588	-103.816	18.6926	-185.16	-117.447	41.9305	-189.057	-90.9291	62.5745	-213.641	-46.685	42.5311	-221.495	-32.649	78.2458	-184.615	-24.3763	62.5593	
295	2.45833	-151.47	-39.4008	79.7063	-125.083	-52.8353	54.9807	-119.821	-72.7852	29.2507	-123.076	-92.5764	5.83183	-151.41	-73.2485	-0.0343914	-145.019	-101.548	11.0738	-144.23	-89.2373	43.5347	-171.48	-83.952	1.96106	-160.447	-115.298	16.602	-161.289	-94.3475	54.8846	-187.791	-97.9748	11.3438	-174.561	-120.252	33.8583	-173.631	-93.5118	55.279	-206.14	-106.447	24.5891	-183.481	-120.516	45.7031	-187.011	-93.6843	66.3734	-211.638	-47.6555	45.1873	-218.86	-36.0957	74.6189	-184.056	-27.7642	61.4504	
296	2.46667	-150.158	-40.8527	80.8414	-128.04	-56.5141	58.31	-117.841	-77.3237	26.0261	-123.848	-96.6791	8.5913	-151.62	-77.1787	2.38643	-141.284	-104.253	10.2933	-145.102	-91.2076	46.185	-168.868	-90.0836	2.50712	-156.455	-117.496	21.2477	-161.936	-98.9162	55.5994	-187.77	-101.507	12.7429	-174.732	-123.716	34.2475	-176.052	-97.9156	58.5581	-203.161	-110.49	25.5287	-181.873	-121.484	46.945	-183.514	-99.3382	66.6795	-213.565	-51.6742	42.2993	-215.672	-37.0678	76.8973	-183.503	-28.1622	62.1814	
297	2.475	-146.95	-42.3637	76.7851	-128.74	-58.035	58.7601	-116.669	-78.2438	30.5238	-123.854	-98.6568	11.2861	-149.011	-77.9649	2.51338	-138.985	-106.481	13.6533	-144.761	-92.9761	47.9598	-173.197	-92.1368	3.81494	-156.001	-119.375	22.51	-159.073	-96.7174	57.487	-186.232	-105.707	12.9813	-175.473	-126.184	34.0698	-172.514	-96.5204	59.0262	-205.299	-110.464	27.0208	-183.029	-124.779	46.0519	-187.215	-96.8683	69.8253	-212.337	-54.1777	47.2358	-219.88	-38.5737	74.677	-182.55	-33.0418	58.6365	
298	2.48333	-147.744	-43.494	78.5822	-124.057	-57.2758	59.6859	-117.474	-79.0229	30.1033	-120.647	-97.4252	13.2559	-150.468	-80.4764	3.35947	-141.349	-107.693	15.0876	-142.188	-92.754	49.2453	-166.022	-94.2365	3.98401	-154.196	-120.883	22.9766	-161.156	-96.5598	59.908	-181.958	-107.123	13.8796	-168.232	-124.339	37.1639	-173.063	-100.977	60.2316	-198.877	-111.624	27.0512	-182.157	-125.692	52.3481	-186.502	-103.652	72.1015	-208.427	-53.7757	46.2015	-216.205	-38.5738	76.0663	-181.917	-32.2384	60.3737	
299	2.49167	-147.433	-42.3189	78.0696	-127.774	-55.5128	60.9614	-116.675	-76.6617	28.9318	-120.414	-96.4678	8.47214	-150.367	-81.7292	4.68825	-140.688	-108.107	14.6236	-141.593	-96.2748	47.0692	-168.395	-98.1407	5.60053	-153.716	-121.451	24.4942	-155.306	-100.189	59.0636	-185.899	-107.606	16.8787	-170.194	-126.657	39.2732	-169.587	-100.585	61.0024	-202.011	-113.953	30.1883	-179.534	-126.371	49.2344	-182.802	-98.2819	73.3799	-211.047	-55.6331	46.818	-218.64	-41.216	75.6939	-183.024	-33.832	60.3837	
300	2.5	-150.554	-39.5213	82.5278	-127.945	-51.9315	55.4202	-119.098	-71.7538	30.0209	-119.649	-93.2999	9.98694	-152.985	-81.3745	4.62233	-135.321	-105.545	14.7693	-141.723	-93.4615	48.9797	-169.103	-97.6131	7.45932	-151.198	-120.473	27.3545	-153.065	-97.8285	59.2964	-181.909	-111.917	17.6826	-165.296	-125.737	37.6663	-171.262	-96.2757	64.318	-196.302	-119.069	31.8999	-177.022	-127.742	55.0578	-180.091	-102.343	73.5877	-210.666	-58.8625	48.4537	-217.177	-41.8784	74.2491	-187.683	-34.4968	59.8038	
301	2.50833	-153.413	-39.0684	78.4129	-128.226	-47.693	54.1291	-115.073	-67.5115	29.8998	-118.004	-87.8289	12.9035	-152.997	-78.4453	6.8328	-135.053	-104.392	15.1065	-135.501	-89.5453	48.6671	-168.618	-95.0015	9.01612	-149.081	-119.222	32.3643	-155.571	-96.264	61.7018	-178.791	-108.959	19.4132	-163.486	-126.906	42.4819	-166.673	-93.4497	64.1063	-194.846	-120.366	32.8785	-173.483	-126.523	57.8031	-177.643	-100.269	75.0027	-214.397	-62.9882	48.2808	-221.353	-45.1897	75.0282	-187.427	-32.2309	58.4395	
302	2.51667	-153.087	-35.2075	78.0565	-127.577	-43.666	53.4855	-116.141	-62.3328	31.1077	-119.243	-87.8293	9.23458	-149.016	-76.3946	5.05059	-132.705	-103.929	15.3255	-136.074	-86.0044	50.7945	-165.883	-98.8718	8.92306	-145.768	-117.788	32.5253	-150.031	-94.2967	61.1555	-175.456	-113.751	19.3537	-161.837	-126.947	43.2001	-167.417	-93.6139	65.4885	-191.01	-119.991	33.9047	-169.11	-124.076	57.9116	-177.674	-98.6678	76.1701	-214.407	-63.5416	47.2698	-223.822	-49.5756	75.5008	-188.673	-33.0058	60.6629	
303	2.525	-156.618	-35.4056	78.2366	-129.182	-39.7285	53.5797	-117.369	-59.7696	30.4418	-117.046	-84.1541	11.2124	-152.736	-79.7469	5.97987	-134.383	-104.795	20.203	-136.896	-87.1379	50.3626	-162.922	-101.062	7.91872	-146.073	-118.063	34.3893	-150.533	-89.441	60.8199	-178.723	-113.934	21.7453	-156.811	-123.978	42.0437	-166.327	-95.3613	64.9989	-189.452	-119.129	34.2219	-168.706	-124.749	62.7724	-177.045	-100.182	76.5477	-213.988	-67.1503	43.8934	-225.775	-51.4407	72.0637	-192.192	-35.136	58.9511	
304	2.53333	-158.411	-35.5136	76.8609	-129.126	-38.6492	55.3724	-118.885	-59.2608	29.4175	-122.995	-83.9741	13.9313	-150.761	-80.2994	7.61979	-133.49	-103.564	22.3023	-139.898	-85.4605	52.0744	-166.279	-100.53	11.1771	-147.135	-119.175	31.7755	-155.075	-90.2724	62.7968	-174.154	-115.625	22.086	-155.168	-122.155	46.2275	-165.58	-97.4277	65.8379	-188.342	-122.264	36.4534	-168.054	-122.957	61.4503	-177.753	-97.3866	78.0721	-214.693	-64.0459	46.8453	-221.347	-50.0605	73.6942	-190.336	-33.4411	57.1749	
305	2.54167	-159.136	-34.2086	75.3276	-134.056	-39.9251	57.4759	-116.515	-58.0018	28.8883	-120.784	-84.4334	13.5545	-146.238	-81.0575	6.82518	-132.97	-104.009	22.0961	-140.557	-81.2441	53.9162	-167.678	-98.6705	11.5564	-145.254	-117.547	32.5761	-152.653	-88.0438	61.9031	-177.188	-115.442	23.039	-160.007	-127.227	46.1334	-165.923	-95.2281	65.5471	-193.254	-122.193	37.0898	-168.625	-124.933	62.5478	-179.511	-95.2783	77.2515	-215.236	-66.8747	47.0711	-226.547	-51.6216	71.296	-193.858	-34.3388	58.7763	
306	2.55	-159.905	-33.5699	79.9517	-134.255	-40.9246	57.5966	-117.708	-59.5085	28.8577	-118.736	-82.4245	14.9588	-150.243	-81.2543	9.01391	-135.151	-103.088	26.4788	-142.654	-81.9029	53.3676	-166.64	-98.2158	11.2402	-147.293	-117.163	34.2852	-155.129	-86.3168	62.1599	-177.705	-116.085	23.3023	-158.806	-122.219	48.9594	-169.413	-96.4971	67.3747	-191.705	-118.239	35.4579	-170.151	-122.364	62.0694	-181.541	-97.403	77.2803	-214.719	-64.4603	45.1161	-225.874	-48.8864	72.703	-195.833	-34.7872	57.8764	
307	2.55833	-157.245	-30.4145	80.4096	-129.311	-37.9539	60.0874	-117.635	-58.8775	33.0415	-121.4	-83.2401	15.5018	-149.954	-78.4258	8.35846	-136.681	-102.829	25.1183	-144.683	-83.5269	53.2969	-168.254	-97.8638	11.9128	-149.281	-116.944	37.4961	-157.425	-88.1855	62.13	-176.68	-112.147	21.221	-160.092	-121.624	45.6843	-171.341	-97.1417	67.0134	-193.635	-119.984	35.6376	-172.328	-124.042	59.7398	-183.363	-95.191	76.8139	-216.46	-63.5085	47.3316	-224.149	-46.3985	72.3708	-192.406	-30.3705	59.032	
